<svg xmlns="http://www.w3.org/2000/svg" width="1600" height="980" viewBox="0 0 1600 980" fill="none">
  <rect width="1600" height="980" fill="#efe7da"/>
  <rect x="48" y="40" width="1504" height="900" rx="30" fill="#f9f5ee" stroke="#cfbea7"/>
  <rect x="92" y="76" width="1416" height="72" rx="20" fill="#fffdf8" stroke="#d9cfbf"/>
  <text x="132" y="120" fill="#7c674c" font-family="ui-sans-serif, system-ui" font-size="14" letter-spacing="3">ILLUSTRATIVE MOCK</text>
  <text x="130" y="246" fill="#a05724" font-family="ui-sans-serif, system-ui" font-size="15" letter-spacing="4">PORTABLE SKILL PACKAGES</text>
  <text x="130" y="332" fill="#0d1624" font-family="Georgia, serif" font-size="62">A curated registry for</text>
  <text x="130" y="398" fill="#0d1624" font-family="Georgia, serif" font-size="62">Skills you can inspect.</text>
  <text x="130" y="462" fill="#5f6e7f" font-family="ui-sans-serif, system-ui" font-size="28">Seeded breadth, visible depth labels, and a public quality bar.</text>
  <rect x="130" y="536" width="248" height="148" rx="24" fill="#fff8f1" stroke="#ead2bb"/>
  <rect x="400" y="536" width="248" height="148" rx="24" fill="#fff8f1" stroke="#ead2bb"/>
  <rect x="670" y="536" width="248" height="148" rx="24" fill="#fff8f1" stroke="#ead2bb"/>
  <text x="160" y="592" fill="#7c674c" font-family="ui-sans-serif, system-ui" font-size="16">Seeded Skills</text>
  <text x="160" y="646" fill="#18314f" font-family="Georgia, serif" font-size="48">60</text>
  <text x="430" y="592" fill="#7c674c" font-family="ui-sans-serif, system-ui" font-size="16">Flagships</text>
  <text x="430" y="646" fill="#18314f" font-family="Georgia, serif" font-size="48">12</text>
  <text x="700" y="592" fill="#7c674c" font-family="ui-sans-serif, system-ui" font-size="16">Certified</text>
  <text x="700" y="646" fill="#18314f" font-family="Georgia, serif" font-size="48">2</text>
  <rect x="980" y="190" width="468" height="494" rx="30" fill="#18314f"/>
  <text x="1020" y="250" fill="#f3eee4" font-family="Georgia, serif" font-size="34">Featured Flagships</text>
  <rect x="1020" y="286" width="388" height="86" rx="20" fill="#274364"/>
  <rect x="1020" y="388" width="388" height="86" rx="20" fill="#274364"/>
  <rect x="1020" y="490" width="388" height="86" rx="20" fill="#274364"/>
  <text x="1050" y="336" fill="#f8f3ea" font-family="ui-sans-serif, system-ui" font-size="24">Research Dossier</text>
  <text x="1050" y="438" fill="#f8f3ea" font-family="ui-sans-serif, system-ui" font-size="24">PRD Critic</text>
  <text x="1050" y="540" fill="#f8f3ea" font-family="ui-sans-serif, system-ui" font-size="24">Workflow Compiler</text>
  <rect x="130" y="742" width="630" height="140" rx="26" fill="#fffdf8" stroke="#d9cfbf"/>
  <rect x="788" y="742" width="660" height="140" rx="26" fill="#fffdf8" stroke="#d9cfbf"/>
  <text x="160" y="790" fill="#18314f" font-family="Georgia, serif" font-size="30">Use it today</text>
  <text x="160" y="834" fill="#5f6e7f" font-family="ui-sans-serif, system-ui" font-size="24">Start with flagships, then use collections or the studio scaffold flow.</text>
  <text x="818" y="790" fill="#18314f" font-family="Georgia, serif" font-size="30">Visible standards</text>
  <text x="818" y="834" fill="#5f6e7f" font-family="ui-sans-serif, system-ui" font-size="24">Certification stays rare. Benchmarks and manual review are both required.</text>
  <text x="1236" y="121" fill="#18314f" font-family="Georgia, serif" font-size="34">Skillforge</text>
</svg>
